<?xml version="1.0" encoding="UTF-8" standalone="no"?>
<!-- Created with Inkscape (http://www.inkscape.org/) -->

<svg
   xmlns:dc="http://purl.org/dc/elements/1.1/"
   xmlns:cc="http://creativecommons.org/ns#"
   xmlns:rdf="http://www.w3.org/1999/02/22-rdf-syntax-ns#"
   xmlns:svg="http://www.w3.org/2000/svg"
   xmlns="http://www.w3.org/2000/svg"
   version="1.1"
   width="385"
   height="475"
   id="svg2">
  <defs
     id="defs82" />
  <metadata
     id="metadata4">
    <rdf:RDF>
      <cc:Work
         rdf:about="">
        <dc:format>image/svg+xml</dc:format>
        <dc:type
           rdf:resource="http://purl.org/dc/dcmitype/StillImage" />
        <dc:title></dc:title>
      </cc:Work>
    </rdf:RDF>
  </metadata>
  <g
     transform="translate(-136.32545,-504.8594)"
     id="g6">
    <g
       transform="translate(93.825449,-70.0156)"
       id="g8">
      <path
         d="M 46.399,8.2123 423.78,7.6967 424.81,278.87 C 421.86,302.2 421.66,329.86 415,347 H 320 L 154.66,311.07 150,347 H 55 C 48.304,332.77 47.031,305.41 44.337,277.84 z"
         transform="translate(0,570.36217)"
         id="path12"
         style="fill:#0f47af;stroke:#000000;stroke-width:3;stroke-linecap:butt;stroke-linejoin:miter;stroke-miterlimit:4;stroke-dasharray:none" />
      <path
         d="m 310.36,85.544 c 0,31.605 -25.621,57.226 -57.226,57.226 -31.605,0 -57.226,-25.621 -57.226,-57.226 0,-31.605 25.621,-57.226 57.226,-57.226 31.605,0 57.226,25.621 57.226,57.226 z"
         transform="translate(-6.2491107,565.5087)"
         id="path14"
         style="fill:#fcdd09;stroke:#000000;stroke-width:3;stroke-linecap:round;stroke-linejoin:round;stroke-miterlimit:4;stroke-dasharray:none;stroke-dashoffset:0" />
      <path
         d="m 218.08,153.6 c -11.656,-3.7108 -20.083,6.8536 -28.355,13.662 -14.116,11.618 -15.34,15.178 -23.01,22.767 -4.234,-0.87831 -6.4772,1.5612 -8.696,4.0415 -27.765,-4.4072 -12.131,14.131 -27.84,10.826 -8.4993,7.4567 -11.152,17.988 0.25777,18.817 4.7258,0.3437 14.178,1.0311 14.178,1.0311 -0.786,32.355 22.735,26.904 33.253,41.244 -15.621,5.6112 -20.504,15.891 -20.364,28.355 -8.0463,7.2483 -13.004,17.586 -14.178,31.706 l -9.5376,47.946 c -14.263,5.7139 -23.81,8.8292 -31.448,25.004 13.338,9.6926 16.364,9.7482 31.706,11.6 9.3785,-4.768 16.736,-26.145 17.013,-35.057 0.62567,-20.09 1.1931,-45.808 6.1866,-56.195 23.694,18.802 41.998,23.944 61.35,32.222 22.573,-0.86556 36.627,7.9879 62.123,2.8355 9.2276,25.296 5.5685,41.904 12.889,67.794 -1.6884,5.8729 -9.2776,6.1029 -13.404,6.9599 3.0804,5.9219 2.4113,14.173 11.6,15.209 11.638,-2.1247 11.009,-8.5787 11.342,-14.693 18.331,0.3884 35.606,-2.2456 48.461,-14.178 8.1458,-6.5769 18.116,-12.98 12.373,-20.88 -11.944,-12.344 -24.66,-22.785 -36.088,-23.2 -4.0751,-13.076 -6.6351,-34.11 -18.817,-39.955 0.32124,-8.3708 -1.794,-15.789 2.4928,-25.495 6.4217,-14.538 4.9667,-25.099 -4.8128,-30.185 7.9097,0.65491 21.887,-7.0236 32.222,-7.2177 8.212,-0.15424 15.931,-17.506 13.92,-21.395 -7.2196,-13.961 -7.8056,-43.299 -12.373,-45.884 l -43.306,-41.244 c 7.3895,1.267 14.779,2.0789 22.169,-2.0622 l 3.0933,-11.084 c -12.029,4.7727 -23.192,10.697 -35.221,8.7956 -1.468,-3.9608 -8.9376,-4.4474 -14.271,-5.1868 l -15.209,-9.2798 z"
         transform="translate(0,570.36217)"
         id="path16"
         style="fill:#da121a;stroke:#000000;stroke-width:3;stroke-linecap:round;stroke-linejoin:round;stroke-miterlimit:4;stroke-dasharray:none" />
      <path
         d="m 246.95,436.12 c -4.8712,11.964 -4.5732,19.998 0.25777,28.355 10.889,2.2634 19.396,-15.683 24.488,-35.057 -5.4981,2.0557 -16.907,0.9126 -24.746,6.7021 z"
         transform="translate(0,570.36217)"
         id="path18"
         style="fill:#fcdd09;stroke:#000000;stroke-width:3;stroke-linecap:butt;stroke-linejoin:miter;stroke-miterlimit:4;stroke-dasharray:none" />
      <path
         d="m 200.29,410.08 c 9.5307,5.6677 19.608,9.3302 31.191,7.4754 10.379,12.617 24.425,13.745 40.986,2.8355 6.2725,2.6502 12.545,3.809 18.817,-1.2889 5.9736,7.2412 -5.1416,11.046 -9.7954,10.311 l -9.7954,-1.5466 c -21.677,11.84 -33.034,6.7877 -41.759,-3.8666 -11.976,1.5224 -21.533,-0.15171 -31.448,-6.1866 z"
         transform="translate(0,570.36217)"
         id="path20"
         style="fill:#fcdd09;stroke:#000000;stroke-width:3;stroke-linecap:butt;stroke-linejoin:miter;stroke-miterlimit:4;stroke-dasharray:none" />
      <path
         d="m 141.78,404.67 c 7.4292,-3.1182 14.367,-1.0475 21.137,1.2889 5.2462,1.8103 10.82,2.5084 17.774,-1.3968 4.4682,-2.5093 8.6866,-4.5076 13.417,0.10789 l -1.5466,6.1866 c -5.4442,-0.52689 -9.3854,-0.52572 -16.333,5.5255 -3.6614,3.1892 -12.673,-3.9071 -18.982,2.981 -4.0748,4.4484 -13.356,4.9139 -21.395,6.9599 -23.457,2.8042 -18.271,-2.2035 -12.115,-7.4754 l 5.7595,-4.2312 c -4.7258,0.5862 -9.7314,2.0167 -12.462,-2.7287 -4.0684,-7.0714 -11.947,-3.3904 -18.302,-7.2177 l 4.1244,-6.4443 c 4.0321,3.4518 9.9219,2.569 15.982,1.2889 4.9079,-1.0368 4.745,5.2295 6.7021,7.7332 5.6076,7.1736 11.18,-0.45402 16.24,-2.5777 z"
         transform="translate(0,570.36217)"
         id="path22"
         style="fill:#fcdd09;stroke:#000000;stroke-width:3;stroke-linecap:round;stroke-linejoin:round;stroke-miterlimit:4;stroke-dasharray:none" />
      <path
         d="m 154.66,320.63 c 6.2093,-4.5274 11.375,-3.5365 15.466,-0.51555 6.7256,4.9656 9.2451,14.876 19.075,12.889 15.834,-3.2003 19.54,20.432 26.293,16.755 l -2.5777,7.991 c -7.1148,4.469 -13.022,-10.103 -16.755,-15.982 -2.7599,-4.3455 -8.8642,2.1007 -16.24,-0.51555 -4.4798,-1.5891 -5.7229,-6.8412 -11.6,-12.115 -3.6965,-3.3174 -10.181,-0.92325 -14.178,2.8355 z"
         transform="translate(0,570.36217)"
         id="path24"
         style="fill:#fcdd09;stroke:#000000;stroke-width:3;stroke-linecap:round;stroke-linejoin:round;stroke-miterlimit:4;stroke-dasharray:none" />
      <path
         d="m 222.72,351.31 c 4.8755,-1.5309 6.4037,-10.157 15.466,-0.25777 3.2765,3.579 8.7856,5.9446 11.858,0.51555 2.7658,-4.888 7.8634,-6.187 14.693,1.0311 7.2966,7.7116 12.785,-7.0106 14.693,-2.0622 l 2.644,6.8585 c -2.8054,6.8247 -15.381,5.1002 -18.626,2.9368 -3.346,-2.3457 -7.2377,-5.2872 -10.311,-2.5777 -4.2018,3.7044 -7.5869,6.5236 -11.342,5.671 -5.5225,-1.2538 -10.94,-13.565 -21.911,-4.3821 z"
         transform="translate(0,570.36217)"
         id="path26"
         style="fill:#fcdd09;stroke:#000000;stroke-width:3;stroke-linecap:butt;stroke-linejoin:miter;stroke-miterlimit:4;stroke-dasharray:none" />
      <path
         d="m 250.56,279.39 c 17.073,-0.80315 30.462,6.187 34.542,14.435 7.2643,14.688 11.652,23.385 23.2,26.551 l 1.0311,11.147 c -7.991,-0.84497 -19.129,-8.817 -24.488,-16.302 -4.3014,-6.008 -7.4662,-15.125 -11.084,-18.56 -9.6566,-9.1674 -19.437,-7.2562 -28.355,-5.9288 z"
         transform="translate(0,570.36217)"
         id="path28"
         style="fill:#fcdd09;stroke:#000000;stroke-width:3;stroke-linecap:round;stroke-linejoin:round;stroke-miterlimit:4;stroke-dasharray:none" />
      <path
         d="m 152.75,197.65 c -0.95348,14.376 -2.9355,21.592 -7.0774,27.039 20.087,6.2237 29.336,3.0213 27.492,-9.9053 -0.80162,-5.6191 -13.367,-15.57 -20.415,-17.134 z"
         transform="translate(0,570.36217)"
         id="path30"
         style="fill:#fcdd09;stroke:#000000;stroke-width:3;stroke-linecap:butt;stroke-linejoin:miter;stroke-miterlimit:4;stroke-dasharray:none" />
      <path
         d="m 211.89,153.34 -4.6399,-20.88 c 2.0118,-0.85925 2.2658,-5.0696 0.25777,-6.4444 0.89646,-11.437 -1.0125,-10.442 -8.5065,-18.817 -5.5093,3.6021 -9.1272,8.4651 -6.4444,17.529 -0.0915,2.3061 -2.404,5.5277 4.8977,7.2177 l 6.1866,23.715 c 2.7609,-1.0426 5.5353,-2.4051 8.2488,-2.32 z"
         transform="translate(0,570.36217)"
         id="path32"
         style="fill:#fcdd09;stroke:#000000;stroke-width:3;stroke-linecap:round;stroke-linejoin:round;stroke-miterlimit:4;stroke-dasharray:none" />
      <path
         d="m 159.82,288.67 c 7.3895,-4.4374 14.779,-10.868 22.169,-10.826 -17.353,-50.277 -35.405,-98.458 -54.132,-144.61 -10.347,-6.5214 -4.2431,-14.731 -7.2177,-32.995 7.0476,17.356 18.127,14.824 13.146,30.417 20.155,47.97 38.957,96.212 55.679,144.87 26.277,15.68 21.494,30.437 30.933,61.608 22.118,-65.651 43.008,-116.02 67.794,-178.89 -1.6668,-4.2397 1.1271,-5.9642 4.1244,-9.5376 l 19.333,-50.781 c -1.6869,-2.5601 -1.7738,-7.9344 6.4443,-4.8977 -5.4235,-2.8142 -5.3662,-10.335 3.2278,-7.5937 -6.4387,-1.2116 -4.9145,-8.6318 1.9277,-6.5838 -3.7888,-1.2454 -9.003,-5.3339 -1.2889,-8.7643 -2.1884,-2.3994 -0.92568,-4.7988 0.19213,-7.1981 -5.6292,10.526 -10.94,-9.6641 -10.245,-23.219 l 1.0311,-20.106 c 4.2472,-0.27055 3.7166,4.429 9.0221,3.8666 6.3392,-0.672 17.109,-13.682 34.542,-7.2177 13.263,4.9185 24.198,14.962 21.911,33.768 -1.9091,15.694 -11.37,20.428 -22.426,21.137 -8.6544,0.55562 -16.604,-5.4368 -17.529,-13.92 -2.1163,-19.419 9.0739,-15.692 16.24,-15.724 -6.7673,7.2177 -9.8392,20.945 1.2889,22.426 10.331,1.3754 13.791,-6.5514 15.209,-13.92 2.8153,-14.629 -12.981,-28.143 -27.066,-26.551 1.2139,4.8118 3.5452,9.6235 1.5466,14.435 -8.6335,-5.7903 -18.081,-12.041 -23.457,0.25777 -4.8394,7.2957 1.4,19.451 -10e-6,24.488 5.6557,-4.0238 10.034,-1.2549 11.342,5.9288 0.88464,4.858 -2.4355,6.3999 -7.991,3.0933 5.6793,4.2919 4.1431,8.0686 -2.5777,7.2177 4.6196,3.0933 3.967,6.1866 -1.8044,6.4443 4.0743,3.4307 2.0936,8.8256 -2.911,7.6577 4.9352,0.93979 3.1985,5.9599 0.0755,6.0043 l -18.817,54.39 c 0.0556,3.1638 0.18743,6.3493 -4.4459,8.1734 -24.742,66.427 -50.245,132.57 -75.464,198.82 l -33.511,91.767 c -1.8749,5.1344 -11.566,3.3795 -8.2488,-5.1555 l 33.768,-86.87 3.3525,-13.901 -4.6414,-21.93 c -3.9017,-15.011 -5.676,-31.986 -18.044,-39.182 l 5.4132,14.951 -7.7332,0.25778 -4.3822,-15.209 c -12.62,0.96988 -13.931,0.19082 -25.777,3.6088 z"
         transform="translate(0,570.36217)"
         id="path34"
         style="fill:#fcdd09;stroke:#000000;stroke-width:3;stroke-linecap:round;stroke-linejoin:round;stroke-miterlimit:4;stroke-dasharray:none" />
      <path
         d="m 291.03,444.62 c 9.4454,-1.98 13.481,-6.5356 12.631,-14.693 23.998,1.5998 65.81,-15.18 57.741,-38.408 5.7956,3.6081 18.277,6.6795 13.92,11.6 -17.536,19.801 -31.021,32.946 -62.381,32.737 0.30275,12.728 -13.63,12.071 -21.911,8.7643 z"
         transform="translate(0,570.36217)"
         id="path36"
         style="fill:#fcdd09;stroke:#000000;stroke-width:3;stroke-linecap:round;stroke-linejoin:round;stroke-miterlimit:4;stroke-dasharray:none" />
      <path
         d="m 279.17,257.74 c 11.867,7.1011 11.839,-0.19464 7.8659,-12.738 -1.6179,-5.1079 -5.3604,-6.124 -13.191,-11.732 -4.8697,-3.488 -1.3967,-11.605 1.1874,-16.258 l 6.9728,10.311 7.7332,-0.77332 c 18.6,16.546 25.644,39.977 12.115,47.946 -11.726,6.9066 -29.469,-4.1124 -22.684,-16.755 z"
         transform="translate(0,570.36217)"
         id="path38"
         style="fill:#fcdd09;stroke:#000000;stroke-width:3;stroke-linecap:round;stroke-linejoin:round;stroke-miterlimit:4;stroke-dasharray:none" />
      <path
         d="m 268.08,144.32 c 5.1866,0.44832 5.6949,-1.9104 7.7332,-3.3511 -5.1049,18.78 -13.161,22.292 -30.16,32.995 l 22.942,33.768 -4.0931,10.009 -23.746,-37.075 c -2.2997,36.521 -4.9102,54.87 10.311,81.714 l -7.2177,10.826 c -17.723,-28.525 -11.357,-52.448 -10.826,-85.581 -14.138,31.177 -19.609,62.35 -28.871,85.065 l -8.7643,-4.6399 c 10.97,-28.183 20.891,-66.108 32.995,-84.55 9.4078,-14.334 18.47,-27.344 30.16,-41.502 5.3016,-1.3491 7.6259,0.27912 9.5376,2.32 z"
         transform="translate(0,570.36217)"
         id="path40"
         style="fill:#fcdd09;stroke:#000000;stroke-width:3;stroke-linecap:round;stroke-linejoin:round;stroke-miterlimit:4;stroke-dasharray:none" />
      <path
         d="m 327.37,130.91 c 1.1026,-16.786 18.707,-4.9132 10.826,4.6399 4.7182,4.0757 0.61016,9.5227 -3.8666,6.4443 l -13.146,40.986 -8.7643,-7.7332 13.146,-37.119 c -6.6583,-2.1678 -2.7592,-9.0323 1.8044,-7.2177 z"
         transform="translate(0,570.36217)"
         id="path42"
         style="fill:#fcdd09;stroke:#000000;stroke-width:3;stroke-linecap:round;stroke-linejoin:round;stroke-miterlimit:4;stroke-dasharray:none" />
      <path
         d="m 142.81,173.7 c 5.6503,1.0379 10.094,1.1253 10.311,-2.0622 0.25424,-3.7373 -26.929,-9.2425 -26.293,15.209 -0.0761,8.2438 -0.0246,17.208 6.4443,21.395 4.7088,3.0481 12.04,4.8722 9.5376,-6.1866 2.6106,-0.40333 -0.67582,-5.0883 2.5777,-4.8977 4.2412,0.24851 10.822,1.3405 11.858,-2.8355 0.31256,-3.5594 -10.236,-3.3154 -15.466,-4.8977 3.5706,-3.0766 16.396,2.0644 17.271,-1.0311 -2.6487,-7.438 -12.657,-5.0628 -19.075,-7.4754 6.3674,0.057 18.217,1.2687 18.044,-1.0311 -0.43159,-5.7451 -10.091,-3.8024 -15.209,-6.1866 z"
         transform="translate(0,570.36217)"
         id="path44"
         style="fill:#ffffff;stroke:#000000;stroke-width:3;stroke-linecap:round;stroke-linejoin:round;stroke-miterlimit:4;stroke-dasharray:none" />
      <path
         d="m 240.5,243.82 c 1.6781,-5.627 15.275,-8.2076 23.715,-9.2798 10.888,-1.3832 27.161,3.4888 18.817,15.724 -15.568,-1.6591 -14.816,6.4066 -23.715,7.991 -6.4873,1.155 -11.923,12.373 -17.013,9.5376 -2.854,-1.5899 4.6331,-7.1294 8.2488,-12.115 -4.2103,3.4784 -8.9395,11.536 -11.858,7.2177 -2.2355,-3.3084 7.3918,-8.915 11.342,-13.404 -4.554,2.578 -13.104,10.984 -14.435,8.2488 -1.1918,-2.4493 9.0555,-11.487 14.951,-14.951 -4.5658,1.497 -9.4826,4.1415 -10.053,1.0311 z"
         transform="translate(0,570.36217)"
         id="path46"
         style="fill:#ffffff;stroke:#000000;stroke-width:3;stroke-linecap:round;stroke-linejoin:round;stroke-miterlimit:4;stroke-dasharray:none" />
      <path
         d="m 206.73,178.58 c -8.8216,24.111 7.4041,6.5524 19.37,6.5069 10.02,-15.435 29.438,-44.13 37.856,-41.804 l 8.7643,-0.12509 c -8.1734,-7.9504 -3.6201,-14.811 -3.9734,-21.892 l -4.7909,-2.2132 14.56,-35.989 -20.684,-41.254 c -10.556,10.501 -26.509,20.231 -30.995,31.599 -3.456,20.64 -12.49,38.237 -6.275,64.152 -6.9996,5.4038 2.2261,10.28 -6.9523,21.532 2.9831,14.827 -4.7765,13.741 -6.879,19.487 z"
         transform="translate(0,570.36217)"
         id="path48"
         style="fill:#ffffff;stroke:#000000;stroke-width:3;stroke-linecap:round;stroke-linejoin:round;stroke-miterlimit:4;stroke-dasharray:none" />
      <path
         d="m 221.29,97.917 c 5.7372,-0.49 10.325,0.11379 13.8,0.51555 l 4.4889,-17.19 -13.951,-1.0052 c 0.57859,-3.2443 1.0411,-5.7595 2.0935,-8.6392 l 15.555,0.604 c 3.6062,-10.826 6.4264,-19.339 14.769,-29.902 l 4.8847,10.67 c -6.8052,10.19 -7.3217,15.022 -9.7954,21.747 7.4446,2.6167 13.862,3.9091 24.048,12.009 l -3.5776,7.5197 c -6.97,-5.806 -15,-9.284 -24.31,-11.551 -2.5275,4.9799 -3.7665,11.738 -5.3118,17.133 6.9053,1.2423 16.136,5.0211 23.476,10.524 l -3.0048,8.6705 c -11.054,-6.3404 -21.973,-14.78 -45.368,-10.977 z"
         transform="translate(0,570.36217)"
         id="path50"
         style="fill:#da121a;stroke:#000000;stroke-width:3;stroke-linecap:round;stroke-linejoin:round;stroke-miterlimit:4;stroke-dasharray:none" />
      <path
         d="m 262.89,54.523 7.9208,-6.8898 c 7.1512,16.087 7.5003,26.089 7.3999,36.974 -2.7476,-10.453 -9.7998,-19.631 -15.321,-30.084 z"
         transform="translate(0,570.36217)"
         id="path52"
         style="fill:#da121a;stroke:#000000;stroke-width:3;stroke-linecap:round;stroke-linejoin:round;stroke-miterlimit:4;stroke-dasharray:none" />
      <path
         d="m 273.27,802.13 10.285,-4.1869"
         id="path54"
         style="fill:none;stroke:#000000;stroke-width:3;stroke-linecap:round;stroke-linejoin:round;stroke-miterlimit:4;stroke-dasharray:none" />
      <path
         d="m 216.88,804.97 c 2.3093,14.093 3.1605,28.977 4.0116,41.449 -4.2363,-2.9753 -9.9308,-10.166 -14.167,-8.5511"
         id="path56"
         style="fill:#000000" />
      <path
         d="m 251.24,918.05 c -3.6613,14.513 -10.748,5.0505 -17.177,0.18568 -2.457,-17.401 9.2609,-18.649 12.368,-30.286 z"
         id="path58"
         style="fill:#000000" />
      <path
         d="m 192.49,900.59 c -3.6613,9.7744 -8.5604,3.2278 -14.99,-1.637 -2.457,-17.401 11.266,-26.122 13.826,-28.828 3.3312,9.5474 0.28995,19.824 1.164,30.465 z"
         id="path60"
         style="fill:#000000" />
      <path
         d="m 276.33,315.77 c 2.5518,2.3574 5.1036,3.0843 7.6555,-0.36455 -1.609,11.15 -3.2062,22.312 -2.9164,35.361 -14.785,-11.441 -12.198,-20.616 -4.7391,-34.996 z"
         transform="translate(0,570.36217)"
         id="path62"
         style="fill:#000000;stroke:#000000;stroke-width:1px;stroke-linecap:butt;stroke-linejoin:miter" />
      <path
         d="m 337.22,962.57 c 11.148,-11.426 8.4691,12.752 5.2889,15.538 -5.9289,-10.75 -11.521,-22.341 -15.525,-37.903"
         id="path64"
         style="fill:#000000;stroke:#000000;stroke-width:3;stroke-linecap:round;stroke-linejoin:round;stroke-miterlimit:4;stroke-dasharray:none" />
      <path
         d="m 127.24,961.84 c 0.62953,-8.1839 -8.5767,-12.249 -8.8906,-6.2478 -0.24826,4.7451 1.0671,12.46 8.3914,6.6084 11.745,-9.3834 12.71,-39.271 15.052,-58.087"
         id="path66"
         style="fill:#000000;stroke:#000000;stroke-width:3;stroke-linecap:round;stroke-linejoin:round;stroke-miterlimit:4;stroke-dasharray:none" />
      <path
         d="m 115.94,954.55 c -0.76649,5.0425 -5.1734,10.085 -0.73999,15.127 -10.212,-0.9041 -16.894,-0.23221 0.71093,-15.62"
         id="path68"
         style="fill:#000000;stroke:#000000;stroke-width:3;stroke-linecap:round;stroke-linejoin:round;stroke-miterlimit:4;stroke-dasharray:none" />
      <path
         d="m 253,278.58 c 10.045,-5.9244 19.486,-17.468 29.528,-26.976 -18.413,-6.5935 -26.844,10.803 -29.528,26.976 z"
         transform="translate(0,570.36217)"
         id="path70"
         style="fill:#000000" />
      <path
         d="m 45,577.36 380,0 0,260 c 0,130 -65,210 -190,210 -125,0 -190,-80 -190,-210 z"
         id="path76"
         style="fill:none;stroke:#000000;stroke-width:5;stroke-linecap:butt;stroke-linejoin:miter;stroke-miterlimit:4;stroke-dasharray:none" />
      <path
         d="m 267.91,1027.9 -2.7426,-7.7314 m -131.45,-318.61 -5.3829,2.0953 m 252.48,281.46 -5.8359,-8.7625 m -173.57,26.807 3.4439,-11.34 m 199.16,-48.02 -19.75,-25.78 m 24.396,12.371 -13.834,0.80739 m -77.284,56.322 c -7.7142,-8.6039 -10.797,-20.295 -15.926,-30.623 m 41.56,-21.87 -15.63,-0.51 m 73.373,18.042 -43.825,3.9628 c -8.7321,-14.182 -16.175,-26.559 -24.907,-38.245 m 31.613,85.83701 -46.953,2.1927 7.9436,20.416 -57.226,0.2163 4.8186,16.358 m -30.252,-39.699 -40.511,-0.7302 -12.755,38.367 m -12.466,-23.459 c -5.2045,-4.9001 -23.98,-4.6903 -36.511,-5.927 m -23.035,-28.35701 -30.067,0.002 m 50.689,-53.619 -28.52,-1.0293 m -14.014,18.032 -28.52,-1.0293 m 13.263,27.511 27.692,-44.42 2.8826,-9.9366 m 125.45,-214.68 -5.13,-0.5 m -1.4291,5.2314 c -3.42,1.3951 -5.9481,-1.0062 -8.4136,-0.49225 m 28.099,-12.267 c -1.7109,-1.9102 -3.4218,-1.8544 -5.1327,-0.85679 m -15.646,3.4086 c 0.67658,-3.4415 -2.1868,-6.4945 -5.4973,-4.8668 m 5.4973,-6.4341 c 0.3527,-2.3987 -3.2229,-2.4404 -7.6846,-1.9504 m 30.286,7.4186 c -0.44382,-2.9236 -6.1997,-5.3203 -8.7782,-3.7732 m 12.059,20.178 c 1.9182,2.9292 2.5987,-14.973 1.4291,-16.532 m -19.292,28.927 c -2.3452,-6.0794 -5.4697,-7.4835 -8.7782,-7.7832 m 15.159,4.1484 c -0.54368,4.7338 -6.3539,-7.4819 -9.5073,-8.5123 m -84.364,196.25 c 2.7146,-22.888 10.098,-33.198 35.514,-48.795 m -34.603,58.637 c -1.5434,-20.766 -5.0741,-39.73 33.145,-59.549 m 105.02,42.962 c 3.7498,8.6999 15.121,97.806 32.821,88.877 -18.672,-25.043 -25.154,-57.827 -32.85,-89.369 m -46.673,-53.751 -12.736,1.3219 c 3.2709,9.7902 11.18,10.106 8.4135,14.442 m -16.821,-9.5666 c 6.6544,5.2804 15.201,9.5092 13.54,19.409 m -73.69,-71.54 c 0.10403,13.55 1.9308,25.733 8.8009,29.617 m -25.752,-56.229 c 1.5826,6.5913 0.45915,15.005 -12.161,21.597 m 36.767,-33.262 c -0.60864,15.608 16.537,18.821 13.61,34.793 5.3974,-12.513 12.795,-21.028 15.605,-38.715 m 5.4164,10.848 c -8.5773,18.566 -7.5307,33.413 -17.446,46.021 m 2.5,22.878 c 27.456,2.7408 30.767,27.795 41.518,30.57 -3.768,9.0548 -7.6026,17.684 -11.938,23.106 m 64.473,-69.352 c 2.1136,8.9908 -18.178,13.34 -8.0448,21.622 12.228,9.9952 26.304,14.733 26.689,30.232 m 2.1355,-106.54 c -1.8513,7.2295 -5.7011,14.209 -0.20515,22.357 9.8069,4.1912 19.614,4.79 29.421,14.186 m -47.078,-5.5566 c 17.661,-3.035 28.787,-23.263 45.62,-6.838 m -34.319,-32.351 c -1.6742,14.041 0.93523,22.941 4.0492,31.236 19.367,3.4722 25.208,16.864 30.27,30.826 m -40.612,-90.818 c 1.3532,1.313 2.8,2.514 5.4132,2.32 m -1.8044,-10.826 c 2.6654,2.1077 3.8743,2.0307 5.671,2.8355 m 13.524,-56.15 c 1.712,0.94739 2.9865,2.3322 6.0668,1.9112 m 26.564,-46.399 c 0.35024,-4.6366 4.5402,-7.6268 9.0091,-10.204 m -28.311,95.634 c 2.9535,1.9156 6.0255,3.4757 9.4621,3.9421 m -6.8089,-11.311 c 1.9294,1.7784 5.5874,3.3739 10.342,4.8535 m -140.64,-3.6714 c 3.0074,0.44801 6.0147,0.7693 9.0221,0.25777 m -13.404,-6.1866 c 4.5017,0.3624 8.9495,0.83253 13.92,0.25777 m 34.542,42.275 c 5.3193,-8.6784 18.524,-15.899 23.244,-24.577 m -31.75,43.137 c 2.8197,-8.0744 5.2204,-16.777 10.677,-20.897 11.103,-4.7594 20.374,-10.8 24.638,-20.347 m -89.705,215.76 c 3.981,4.8984 1.7218,24.65 1.5466,35.831 m -52.844,18.711 7.0483,-6.5953 m -6.275,7.2177 c 6.2568,1.6154 7.3564,4.95 9.7514,7.8527 l -8.4625,23.33801 m 3.6088,-34.79901 c 4.7095,3.3511 11.477,6.1866 12.889,9.5376 m 10.053,-2.8355 c -0.18211,-5.7811 -8.6237,-6.4 -13.717,-9.1116 10.013,0.39001 21.535,-0.1489 22.997,5.5027 m 99.243,-55.679 c 3.7436,21.474 7.5916,42.823 7.991,68.31 m -41.502,-5.2336 c 0.33798,-20.252 5.9765,-28.598 7.991,-48.977 m 5.4132,77.59001 c 6.7021,-1.5747 10.311,-1.5184 17.013,1.0311 m -16.755,-7.1395 c 6.7021,-1.5747 13.404,-1.003 20.106,1.5466"
         id="path78"
         style="fill:none;stroke:#000000;stroke-width:3;stroke-linecap:round;stroke-linejoin:round;stroke-miterlimit:4;stroke-dasharray:none" />
    </g>
  </g>
</svg>
